<svg width="33" height="33" viewBox="0 0 33 33" fill="none" xmlns="http://www.w3.org/2000/svg">
<rect width="32.4175" height="32.4175" rx="16.2088" fill="white"/>
<path d="M16.209 24.7177C20.9074 24.7177 24.7162 20.9089 24.7162 16.2104C24.7162 11.512 20.9074 7.70312 16.209 7.70312C11.5105 7.70312 7.70166 11.512 7.70166 16.2104C7.70166 20.9089 11.5105 24.7177 16.209 24.7177Z" stroke="#006499" stroke-width="1.70146" stroke-linecap="round" stroke-linejoin="round"/>
<path d="M16.209 20.4646V16.2109" stroke="#006499" stroke-width="1.70146" stroke-linecap="round" stroke-linejoin="round"/>
<path d="M16.2091 12.2383C16.1144 12.2383 16.0219 12.2664 15.9432 12.3189C15.8645 12.3715 15.8031 12.4463 15.7669 12.5337C15.7307 12.6212 15.7212 12.7174 15.7397 12.8103C15.7581 12.9031 15.8037 12.9884 15.8707 13.0553C15.9376 13.1223 16.0229 13.1678 16.1157 13.1863C16.2086 13.2048 16.3048 13.1953 16.3922 13.1591C16.4797 13.1229 16.5544 13.0615 16.607 12.9828C16.6596 12.9041 16.6877 12.8116 16.6877 12.7169C16.6879 12.654 16.6756 12.5917 16.6516 12.5335C16.6276 12.4754 16.5924 12.4226 16.5479 12.3781C16.5034 12.3336 16.4506 12.2984 16.3924 12.2744C16.3343 12.2504 16.272 12.2381 16.2091 12.2383Z" fill="#006499" stroke="#006499" stroke-width="1.70146" stroke-linecap="round" stroke-linejoin="round"/>
</svg>
