<svg width="30" height="30" viewBox="0 0 30 30" fill="none" xmlns="http://www.w3.org/2000/svg">
<rect width="30" height="30" rx="5" fill="#4094F7"/>
<path d="M7.15774 14.1845L17.0875 10.0932C18.0677 9.66707 21.3918 8.30333 21.3918 8.30333C21.3918 8.30333 22.926 7.70669 22.7981 9.15567C22.7555 9.7523 22.4146 11.8405 22.0737 14.0992L21.0082 20.7901C21.0082 20.7901 20.923 21.7703 20.1985 21.9407C19.474 22.1112 18.2808 21.3441 18.0677 21.1736C17.8972 21.0458 14.8714 19.128 13.7634 18.1905C13.465 17.9348 13.1241 17.4234 13.806 16.8267C15.3402 15.4204 17.1727 13.6731 18.2808 12.565C18.7922 12.0536 19.3036 10.8603 17.1727 12.3093L11.1637 16.3579C11.1637 16.3579 10.4819 16.7841 9.20335 16.4005C7.92484 16.017 6.43325 15.5056 6.43325 15.5056C6.43325 15.5056 5.41044 14.8663 7.15774 14.1845Z" fill="white"/>
</svg>
