<svg width="30" height="30" viewBox="0 0 30 30" fill="none" xmlns="http://www.w3.org/2000/svg">
<rect width="30" height="30" rx="5" fill="#0077FF"/>
<path d="M15.501 21.334C9.12328 21.334 5.48556 16.8295 5.33398 9.33398H8.52865C8.63359 14.8355 10.9888 17.1658 12.8543 17.6463V9.33398H15.8624V14.0787C17.7046 13.8745 19.64 11.7124 20.293 9.33398H23.3011C23.0551 10.5675 22.5646 11.7354 21.8604 12.7647C21.1563 13.794 20.2535 14.6625 19.2086 15.316C20.375 15.913 21.4051 16.7581 22.2311 17.7955C23.0572 18.8328 23.6603 20.0389 24.0007 21.334H20.6894C20.3838 20.2091 19.7628 19.2021 18.9041 18.4393C18.0455 17.6764 16.9874 17.1916 15.8624 17.0457V21.334H15.501Z" fill="white"/>
</svg>
